<svg width="20" height="20" viewBox="0 0 20 20" fill="none" xmlns="http://www.w3.org/2000/svg">
<path d="M6.8915 18.9584H3.52484C1.84984 18.9584 1.0415 18.1834 1.0415 16.5834V3.41675C1.0415 1.81675 1.85817 1.04175 3.52484 1.04175H6.8915C8.5665 1.04175 9.37484 1.81675 9.37484 3.41675V16.5834C9.37484 18.1834 8.55817 18.9584 6.8915 18.9584ZM3.52484 2.29175C2.4665 2.29175 2.2915 2.57508 2.2915 3.41675V16.5834C2.2915 17.4251 2.4665 17.7084 3.52484 17.7084H6.8915C7.94984 17.7084 8.12484 17.4251 8.12484 16.5834V3.41675C8.12484 2.57508 7.94984 2.29175 6.8915 2.29175H3.52484Z" fill="currentColor"/>
<path d="M16.475 9.37502H13.1083C11.4333 9.37502 10.625 8.63335 10.625 7.10002V3.31669C10.625 1.78335 11.4417 1.04169 13.1083 1.04169H16.475C18.15 1.04169 18.9583 1.78335 18.9583 3.31669V7.09169C18.9583 8.63335 18.1417 9.37502 16.475 9.37502ZM13.1083 2.29169C11.9917 2.29169 11.875 2.60835 11.875 3.31669V7.09169C11.875 7.80835 11.9917 8.11669 13.1083 8.11669H16.475C17.5917 8.11669 17.7083 7.80002 17.7083 7.09169V3.31669C17.7083 2.60002 17.5917 2.29169 16.475 2.29169H13.1083Z" fill="currentColor"/>
<path d="M16.475 18.9583H13.1083C11.4333 18.9583 10.625 18.1417 10.625 16.475V13.1083C10.625 11.4333 11.4417 10.625 13.1083 10.625H16.475C18.15 10.625 18.9583 11.4417 18.9583 13.1083V16.475C18.9583 18.1417 18.1417 18.9583 16.475 18.9583ZM13.1083 11.875C12.125 11.875 11.875 12.125 11.875 13.1083V16.475C11.875 17.4583 12.125 17.7083 13.1083 17.7083H16.475C17.4583 17.7083 17.7083 17.4583 17.7083 16.475V13.1083C17.7083 12.125 17.4583 11.875 16.475 11.875H13.1083Z" fill="currentColor"/>
</svg>
